<mxfile host="app.diagrams.net" agent="Mozilla/5.0 (X11; Linux x86_64) AppleWebKit/537.36 (KHTML, like Gecko) Chrome/131.0.0.0 Safari/537.36" version="24.9.3">
  <diagram name="Page-1" id="K_Fz-trieamHBiKl2vH2">
    <mxGraphModel dx="989" dy="543" grid="1" gridSize="10" guides="1" tooltips="1" connect="1" arrows="1" fold="1" page="1" pageScale="1" pageWidth="1500" pageHeight="800" math="0" shadow="0">
      <root>
        <mxCell id="0" />
        <mxCell id="1" parent="0" />
        <mxCell id="-qD7z1_jALMDXgXqYLfl-1" value="" style="rounded=0;whiteSpace=wrap;html=1;fillColor=#f8cecc;strokeColor=#b85450;" vertex="1" parent="1">
          <mxGeometry x="105" y="150" width="90" height="10" as="geometry" />
        </mxCell>
        <mxCell id="-qD7z1_jALMDXgXqYLfl-2" value="" style="ellipse;whiteSpace=wrap;html=1;aspect=fixed;fillColor=#b0e3e6;strokeColor=#0e8088;" vertex="1" parent="1">
          <mxGeometry x="67.5" y="270" width="50" height="50" as="geometry" />
        </mxCell>
        <mxCell id="-qD7z1_jALMDXgXqYLfl-3" value="" style="rounded=0;whiteSpace=wrap;html=1;fillColor=#fff2cc;strokeColor=#d6b656;" vertex="1" parent="1">
          <mxGeometry x="22.5" y="360" width="45" height="40" as="geometry" />
        </mxCell>
        <mxCell id="-qD7z1_jALMDXgXqYLfl-4" value="" style="rounded=0;whiteSpace=wrap;html=1;fillColor=#e1d5e7;strokeColor=#9673a6;" vertex="1" parent="1">
          <mxGeometry x="105" y="360" width="45" height="40" as="geometry" />
        </mxCell>
        <mxCell id="-qD7z1_jALMDXgXqYLfl-27" value="canonical query tree" style="text;html=1;align=center;verticalAlign=middle;whiteSpace=wrap;rounded=0;" vertex="1" parent="1">
          <mxGeometry x="90" y="420" width="60" height="30" as="geometry" />
        </mxCell>
        <mxCell id="-qD7z1_jALMDXgXqYLfl-28" value="query hypertree after applying commutativity" style="text;html=1;align=center;verticalAlign=middle;whiteSpace=wrap;rounded=0;" vertex="1" parent="1">
          <mxGeometry x="333.75" y="420" width="127.5" height="30" as="geometry" />
        </mxCell>
        <mxCell id="-qD7z1_jALMDXgXqYLfl-29" value="" style="ellipse;whiteSpace=wrap;html=1;aspect=fixed;fillColor=#bac8d3;strokeColor=#23445d;" vertex="1" parent="1">
          <mxGeometry x="125" y="180" width="50" height="50" as="geometry" />
        </mxCell>
        <mxCell id="-qD7z1_jALMDXgXqYLfl-30" value="" style="rounded=0;whiteSpace=wrap;html=1;fillColor=#f5f5f5;strokeColor=#666666;fontColor=#333333;" vertex="1" parent="1">
          <mxGeometry x="195" y="360" width="45" height="40" as="geometry" />
        </mxCell>
        <mxCell id="-qD7z1_jALMDXgXqYLfl-31" value="" style="endArrow=classic;html=1;rounded=0;entryX=0.228;entryY=0.919;entryDx=0;entryDy=0;entryPerimeter=0;exitX=0.5;exitY=0;exitDx=0;exitDy=0;" edge="1" parent="1" source="-qD7z1_jALMDXgXqYLfl-3" target="-qD7z1_jALMDXgXqYLfl-2">
          <mxGeometry width="50" height="50" relative="1" as="geometry">
            <mxPoint x="40" y="360" as="sourcePoint" />
            <mxPoint x="90" y="310" as="targetPoint" />
          </mxGeometry>
        </mxCell>
        <mxCell id="-qD7z1_jALMDXgXqYLfl-32" value="" style="endArrow=classic;html=1;rounded=0;entryX=0.695;entryY=0.929;entryDx=0;entryDy=0;entryPerimeter=0;exitX=0.5;exitY=0;exitDx=0;exitDy=0;" edge="1" parent="1" target="-qD7z1_jALMDXgXqYLfl-2">
          <mxGeometry width="50" height="50" relative="1" as="geometry">
            <mxPoint x="126" y="360" as="sourcePoint" />
            <mxPoint x="160" y="316" as="targetPoint" />
          </mxGeometry>
        </mxCell>
        <mxCell id="-qD7z1_jALMDXgXqYLfl-33" value="" style="endArrow=classic;html=1;rounded=0;entryX=0;entryY=1;entryDx=0;entryDy=0;exitX=0.5;exitY=0;exitDx=0;exitDy=0;" edge="1" parent="1" target="-qD7z1_jALMDXgXqYLfl-29">
          <mxGeometry width="50" height="50" relative="1" as="geometry">
            <mxPoint x="90" y="270" as="sourcePoint" />
            <mxPoint x="124" y="226" as="targetPoint" />
          </mxGeometry>
        </mxCell>
        <mxCell id="-qD7z1_jALMDXgXqYLfl-34" value="" style="endArrow=classic;html=1;rounded=0;entryX=0.756;entryY=0.917;entryDx=0;entryDy=0;entryPerimeter=0;exitX=0.5;exitY=0;exitDx=0;exitDy=0;" edge="1" parent="1" target="-qD7z1_jALMDXgXqYLfl-29">
          <mxGeometry width="50" height="50" relative="1" as="geometry">
            <mxPoint x="220" y="360" as="sourcePoint" />
            <mxPoint x="254" y="316" as="targetPoint" />
          </mxGeometry>
        </mxCell>
        <mxCell id="-qD7z1_jALMDXgXqYLfl-35" value="" style="endArrow=classic;html=1;rounded=0;entryX=0.5;entryY=1;entryDx=0;entryDy=0;exitX=0.5;exitY=0;exitDx=0;exitDy=0;" edge="1" parent="1" target="-qD7z1_jALMDXgXqYLfl-1">
          <mxGeometry width="50" height="50" relative="1" as="geometry">
            <mxPoint x="150" y="180" as="sourcePoint" />
            <mxPoint x="184" y="136" as="targetPoint" />
          </mxGeometry>
        </mxCell>
        <mxCell id="-qD7z1_jALMDXgXqYLfl-36" value="" style="rounded=0;whiteSpace=wrap;html=1;fillColor=#f8cecc;strokeColor=#b85450;" vertex="1" parent="1">
          <mxGeometry x="367.5" y="150" width="90" height="10" as="geometry" />
        </mxCell>
        <mxCell id="-qD7z1_jALMDXgXqYLfl-37" value="" style="ellipse;whiteSpace=wrap;html=1;aspect=fixed;fillColor=#b0e3e6;strokeColor=#0e8088;" vertex="1" parent="1">
          <mxGeometry x="330" y="270" width="50" height="50" as="geometry" />
        </mxCell>
        <mxCell id="-qD7z1_jALMDXgXqYLfl-38" value="" style="rounded=0;whiteSpace=wrap;html=1;fillColor=#fff2cc;strokeColor=#d6b656;" vertex="1" parent="1">
          <mxGeometry x="285" y="360" width="45" height="40" as="geometry" />
        </mxCell>
        <mxCell id="-qD7z1_jALMDXgXqYLfl-39" value="" style="rounded=0;whiteSpace=wrap;html=1;fillColor=#e1d5e7;strokeColor=#9673a6;" vertex="1" parent="1">
          <mxGeometry x="367.5" y="360" width="45" height="40" as="geometry" />
        </mxCell>
        <mxCell id="-qD7z1_jALMDXgXqYLfl-40" value="" style="ellipse;whiteSpace=wrap;html=1;aspect=fixed;fillColor=#bac8d3;strokeColor=#23445d;" vertex="1" parent="1">
          <mxGeometry x="387.5" y="180" width="50" height="50" as="geometry" />
        </mxCell>
        <mxCell id="-qD7z1_jALMDXgXqYLfl-41" value="" style="rounded=0;whiteSpace=wrap;html=1;fillColor=#f5f5f5;strokeColor=#666666;fontColor=#333333;" vertex="1" parent="1">
          <mxGeometry x="490" y="360" width="45" height="40" as="geometry" />
        </mxCell>
        <mxCell id="-qD7z1_jALMDXgXqYLfl-42" value="" style="endArrow=classic;html=1;rounded=0;entryX=0.228;entryY=0.919;entryDx=0;entryDy=0;entryPerimeter=0;exitX=0.5;exitY=0;exitDx=0;exitDy=0;" edge="1" parent="1" source="-qD7z1_jALMDXgXqYLfl-38" target="-qD7z1_jALMDXgXqYLfl-37">
          <mxGeometry width="50" height="50" relative="1" as="geometry">
            <mxPoint x="302.5" y="360" as="sourcePoint" />
            <mxPoint x="352.5" y="310" as="targetPoint" />
          </mxGeometry>
        </mxCell>
        <mxCell id="-qD7z1_jALMDXgXqYLfl-43" value="" style="endArrow=classic;html=1;rounded=0;entryX=0.695;entryY=0.929;entryDx=0;entryDy=0;entryPerimeter=0;exitX=0.5;exitY=0;exitDx=0;exitDy=0;" edge="1" parent="1" target="-qD7z1_jALMDXgXqYLfl-37">
          <mxGeometry width="50" height="50" relative="1" as="geometry">
            <mxPoint x="388.5" y="360" as="sourcePoint" />
            <mxPoint x="422.5" y="316" as="targetPoint" />
          </mxGeometry>
        </mxCell>
        <mxCell id="-qD7z1_jALMDXgXqYLfl-44" value="" style="endArrow=classic;html=1;rounded=0;entryX=0;entryY=1;entryDx=0;entryDy=0;exitX=0.5;exitY=0;exitDx=0;exitDy=0;" edge="1" parent="1" target="-qD7z1_jALMDXgXqYLfl-40">
          <mxGeometry width="50" height="50" relative="1" as="geometry">
            <mxPoint x="352.5" y="270" as="sourcePoint" />
            <mxPoint x="386.5" y="226" as="targetPoint" />
          </mxGeometry>
        </mxCell>
        <mxCell id="-qD7z1_jALMDXgXqYLfl-47" value="" style="ellipse;whiteSpace=wrap;html=1;aspect=fixed;fillColor=#dae8fc;strokeColor=#6c8ebf;gradientColor=#7ea6e0;" vertex="1" parent="1">
          <mxGeometry x="400" y="270" width="50" height="50" as="geometry" />
        </mxCell>
        <mxCell id="-qD7z1_jALMDXgXqYLfl-48" value="" style="endArrow=classic;html=1;rounded=0;entryX=1;entryY=1;entryDx=0;entryDy=0;" edge="1" parent="1" target="-qD7z1_jALMDXgXqYLfl-40">
          <mxGeometry width="50" height="50" relative="1" as="geometry">
            <mxPoint x="510" y="360" as="sourcePoint" />
            <mxPoint x="560" y="310" as="targetPoint" />
          </mxGeometry>
        </mxCell>
        <mxCell id="-qD7z1_jALMDXgXqYLfl-49" value="" style="endArrow=classic;html=1;rounded=0;entryX=0;entryY=1;entryDx=0;entryDy=0;" edge="1" parent="1" target="-qD7z1_jALMDXgXqYLfl-40">
          <mxGeometry width="50" height="50" relative="1" as="geometry">
            <mxPoint x="425" y="270" as="sourcePoint" />
            <mxPoint x="475" y="220" as="targetPoint" />
          </mxGeometry>
        </mxCell>
        <mxCell id="-qD7z1_jALMDXgXqYLfl-51" value="" style="endArrow=classic;html=1;rounded=0;entryX=0.246;entryY=0.948;entryDx=0;entryDy=0;entryPerimeter=0;" edge="1" parent="1" target="-qD7z1_jALMDXgXqYLfl-47">
          <mxGeometry width="50" height="50" relative="1" as="geometry">
            <mxPoint x="387.5" y="360" as="sourcePoint" />
            <mxPoint x="437.5" y="310" as="targetPoint" />
          </mxGeometry>
        </mxCell>
        <mxCell id="-qD7z1_jALMDXgXqYLfl-53" value="" style="endArrow=classic;html=1;rounded=0;entryX=0.84;entryY=0.942;entryDx=0;entryDy=0;entryPerimeter=0;" edge="1" parent="1" target="-qD7z1_jALMDXgXqYLfl-47">
          <mxGeometry width="50" height="50" relative="1" as="geometry">
            <mxPoint x="310" y="360" as="sourcePoint" />
            <mxPoint x="360" y="310" as="targetPoint" />
          </mxGeometry>
        </mxCell>
        <mxCell id="-qD7z1_jALMDXgXqYLfl-54" value="" style="rounded=0;whiteSpace=wrap;html=1;fillColor=#cdeb8b;strokeColor=#36393d;" vertex="1" parent="1">
          <mxGeometry x="330" y="310" width="20" height="10" as="geometry" />
        </mxCell>
        <mxCell id="-qD7z1_jALMDXgXqYLfl-56" value="" style="rounded=0;whiteSpace=wrap;html=1;fillColor=#cdeb8b;strokeColor=#36393d;rotation=15;" vertex="1" parent="1">
          <mxGeometry x="387.5" y="220" width="20" height="10" as="geometry" />
        </mxCell>
        <mxCell id="-qD7z1_jALMDXgXqYLfl-57" value="" style="rounded=0;whiteSpace=wrap;html=1;fillColor=#cdeb8b;strokeColor=#36393d;" vertex="1" parent="1">
          <mxGeometry x="402.5" y="310" width="20" height="10" as="geometry" />
        </mxCell>
        <mxCell id="-qD7z1_jALMDXgXqYLfl-58" value="" style="rounded=0;whiteSpace=wrap;html=1;fillColor=#1ba1e2;strokeColor=#006EAF;rotation=0;fontColor=#ffffff;" vertex="1" parent="1">
          <mxGeometry x="402.5" y="160" width="20" height="10" as="geometry" />
        </mxCell>
        <mxCell id="-qD7z1_jALMDXgXqYLfl-59" value="" style="endArrow=classic;html=1;rounded=0;entryX=0.498;entryY=0.881;entryDx=0;entryDy=0;entryPerimeter=0;" edge="1" parent="1" target="-qD7z1_jALMDXgXqYLfl-58">
          <mxGeometry width="50" height="50" relative="1" as="geometry">
            <mxPoint x="412.5" y="180" as="sourcePoint" />
            <mxPoint x="462.5" y="130" as="targetPoint" />
          </mxGeometry>
        </mxCell>
        <mxCell id="-qD7z1_jALMDXgXqYLfl-60" value="" style="rounded=0;whiteSpace=wrap;html=1;fillColor=#ffcccc;strokeColor=#36393d;rotation=-30;" vertex="1" parent="1">
          <mxGeometry x="417.5" y="220" width="20" height="10" as="geometry" />
        </mxCell>
        <mxCell id="-qD7z1_jALMDXgXqYLfl-61" value="" style="rounded=0;whiteSpace=wrap;html=1;fillColor=#ffcccc;strokeColor=#36393d;rotation=0;" vertex="1" parent="1">
          <mxGeometry x="360" y="310" width="20" height="10" as="geometry" />
        </mxCell>
        <mxCell id="-qD7z1_jALMDXgXqYLfl-62" value="" style="rounded=0;whiteSpace=wrap;html=1;fillColor=#ffcccc;strokeColor=#36393d;rotation=15;" vertex="1" parent="1">
          <mxGeometry x="430" y="310" width="20" height="10" as="geometry" />
        </mxCell>
        <mxCell id="-qD7z1_jALMDXgXqYLfl-63" value="" style="rounded=0;whiteSpace=wrap;html=1;fillColor=#f8cecc;strokeColor=#b85450;" vertex="1" parent="1">
          <mxGeometry x="735" y="100" width="90" height="10" as="geometry" />
        </mxCell>
        <mxCell id="-qD7z1_jALMDXgXqYLfl-64" value="" style="ellipse;whiteSpace=wrap;html=1;aspect=fixed;fillColor=#b0e3e6;strokeColor=#0e8088;" vertex="1" parent="1">
          <mxGeometry x="615" y="270" width="50" height="50" as="geometry" />
        </mxCell>
        <mxCell id="-qD7z1_jALMDXgXqYLfl-65" value="" style="rounded=0;whiteSpace=wrap;html=1;fillColor=#fff2cc;strokeColor=#d6b656;" vertex="1" parent="1">
          <mxGeometry x="570" y="360" width="45" height="40" as="geometry" />
        </mxCell>
        <mxCell id="-qD7z1_jALMDXgXqYLfl-66" value="" style="rounded=0;whiteSpace=wrap;html=1;fillColor=#e1d5e7;strokeColor=#9673a6;" vertex="1" parent="1">
          <mxGeometry x="652.5" y="360" width="45" height="40" as="geometry" />
        </mxCell>
        <mxCell id="-qD7z1_jALMDXgXqYLfl-67" value="" style="ellipse;whiteSpace=wrap;html=1;aspect=fixed;fillColor=#bac8d3;strokeColor=#23445d;" vertex="1" parent="1">
          <mxGeometry x="672.5" y="180" width="50" height="50" as="geometry" />
        </mxCell>
        <mxCell id="-qD7z1_jALMDXgXqYLfl-68" value="" style="rounded=0;whiteSpace=wrap;html=1;fillColor=#f5f5f5;strokeColor=#666666;fontColor=#333333;" vertex="1" parent="1">
          <mxGeometry x="775" y="360" width="45" height="40" as="geometry" />
        </mxCell>
        <mxCell id="-qD7z1_jALMDXgXqYLfl-69" value="" style="endArrow=classic;html=1;rounded=0;entryX=0.228;entryY=0.919;entryDx=0;entryDy=0;entryPerimeter=0;exitX=0.5;exitY=0;exitDx=0;exitDy=0;" edge="1" parent="1" source="-qD7z1_jALMDXgXqYLfl-65" target="-qD7z1_jALMDXgXqYLfl-64">
          <mxGeometry width="50" height="50" relative="1" as="geometry">
            <mxPoint x="587.5" y="360" as="sourcePoint" />
            <mxPoint x="637.5" y="310" as="targetPoint" />
          </mxGeometry>
        </mxCell>
        <mxCell id="-qD7z1_jALMDXgXqYLfl-70" value="" style="endArrow=classic;html=1;rounded=0;entryX=0.695;entryY=0.929;entryDx=0;entryDy=0;entryPerimeter=0;exitX=0.5;exitY=0;exitDx=0;exitDy=0;" edge="1" parent="1" target="-qD7z1_jALMDXgXqYLfl-64">
          <mxGeometry width="50" height="50" relative="1" as="geometry">
            <mxPoint x="673.5" y="360" as="sourcePoint" />
            <mxPoint x="707.5" y="316" as="targetPoint" />
          </mxGeometry>
        </mxCell>
        <mxCell id="-qD7z1_jALMDXgXqYLfl-71" value="" style="endArrow=classic;html=1;rounded=0;entryX=0;entryY=1;entryDx=0;entryDy=0;exitX=0.5;exitY=0;exitDx=0;exitDy=0;" edge="1" parent="1" target="-qD7z1_jALMDXgXqYLfl-67">
          <mxGeometry width="50" height="50" relative="1" as="geometry">
            <mxPoint x="637.5" y="270" as="sourcePoint" />
            <mxPoint x="671.5" y="226" as="targetPoint" />
          </mxGeometry>
        </mxCell>
        <mxCell id="-qD7z1_jALMDXgXqYLfl-72" value="" style="ellipse;whiteSpace=wrap;html=1;aspect=fixed;fillColor=#dae8fc;strokeColor=#6c8ebf;gradientColor=#7ea6e0;" vertex="1" parent="1">
          <mxGeometry x="685" y="270" width="50" height="50" as="geometry" />
        </mxCell>
        <mxCell id="-qD7z1_jALMDXgXqYLfl-73" value="" style="endArrow=classic;html=1;rounded=0;entryX=1;entryY=1;entryDx=0;entryDy=0;" edge="1" parent="1" target="-qD7z1_jALMDXgXqYLfl-67">
          <mxGeometry width="50" height="50" relative="1" as="geometry">
            <mxPoint x="795" y="360" as="sourcePoint" />
            <mxPoint x="845" y="310" as="targetPoint" />
          </mxGeometry>
        </mxCell>
        <mxCell id="-qD7z1_jALMDXgXqYLfl-74" value="" style="endArrow=classic;html=1;rounded=0;entryX=0;entryY=1;entryDx=0;entryDy=0;" edge="1" parent="1" target="-qD7z1_jALMDXgXqYLfl-67">
          <mxGeometry width="50" height="50" relative="1" as="geometry">
            <mxPoint x="710" y="270" as="sourcePoint" />
            <mxPoint x="760" y="220" as="targetPoint" />
          </mxGeometry>
        </mxCell>
        <mxCell id="-qD7z1_jALMDXgXqYLfl-75" value="" style="endArrow=classic;html=1;rounded=0;entryX=0.246;entryY=0.948;entryDx=0;entryDy=0;entryPerimeter=0;" edge="1" parent="1" target="-qD7z1_jALMDXgXqYLfl-72">
          <mxGeometry width="50" height="50" relative="1" as="geometry">
            <mxPoint x="672.5" y="360" as="sourcePoint" />
            <mxPoint x="722.5" y="310" as="targetPoint" />
          </mxGeometry>
        </mxCell>
        <mxCell id="-qD7z1_jALMDXgXqYLfl-76" value="" style="endArrow=classic;html=1;rounded=0;entryX=0.84;entryY=0.942;entryDx=0;entryDy=0;entryPerimeter=0;" edge="1" parent="1" target="-qD7z1_jALMDXgXqYLfl-72">
          <mxGeometry width="50" height="50" relative="1" as="geometry">
            <mxPoint x="595" y="360" as="sourcePoint" />
            <mxPoint x="645" y="310" as="targetPoint" />
          </mxGeometry>
        </mxCell>
        <mxCell id="-qD7z1_jALMDXgXqYLfl-77" value="" style="rounded=0;whiteSpace=wrap;html=1;fillColor=#cdeb8b;strokeColor=#36393d;" vertex="1" parent="1">
          <mxGeometry x="615" y="310" width="20" height="10" as="geometry" />
        </mxCell>
        <mxCell id="-qD7z1_jALMDXgXqYLfl-78" value="" style="rounded=0;whiteSpace=wrap;html=1;fillColor=#cdeb8b;strokeColor=#36393d;rotation=15;" vertex="1" parent="1">
          <mxGeometry x="672.5" y="220" width="20" height="10" as="geometry" />
        </mxCell>
        <mxCell id="-qD7z1_jALMDXgXqYLfl-79" value="" style="rounded=0;whiteSpace=wrap;html=1;fillColor=#cdeb8b;strokeColor=#36393d;" vertex="1" parent="1">
          <mxGeometry x="687.5" y="310" width="20" height="10" as="geometry" />
        </mxCell>
        <mxCell id="-qD7z1_jALMDXgXqYLfl-80" value="" style="rounded=0;whiteSpace=wrap;html=1;fillColor=#1ba1e2;strokeColor=#006EAF;rotation=0;fontColor=#ffffff;" vertex="1" parent="1">
          <mxGeometry x="770" y="110" width="20" height="10" as="geometry" />
        </mxCell>
        <mxCell id="-qD7z1_jALMDXgXqYLfl-81" value="" style="endArrow=classic;html=1;rounded=0;entryX=0.498;entryY=0.881;entryDx=0;entryDy=0;entryPerimeter=0;" edge="1" parent="1" target="-qD7z1_jALMDXgXqYLfl-80">
          <mxGeometry width="50" height="50" relative="1" as="geometry">
            <mxPoint x="697.5" y="180" as="sourcePoint" />
            <mxPoint x="747.5" y="130" as="targetPoint" />
          </mxGeometry>
        </mxCell>
        <mxCell id="-qD7z1_jALMDXgXqYLfl-82" value="" style="rounded=0;whiteSpace=wrap;html=1;fillColor=#ffcccc;strokeColor=#36393d;rotation=-30;" vertex="1" parent="1">
          <mxGeometry x="702.5" y="220" width="20" height="10" as="geometry" />
        </mxCell>
        <mxCell id="-qD7z1_jALMDXgXqYLfl-83" value="" style="rounded=0;whiteSpace=wrap;html=1;fillColor=#ffcccc;strokeColor=#36393d;rotation=0;" vertex="1" parent="1">
          <mxGeometry x="645" y="310" width="20" height="10" as="geometry" />
        </mxCell>
        <mxCell id="-qD7z1_jALMDXgXqYLfl-84" value="" style="rounded=0;whiteSpace=wrap;html=1;fillColor=#ffcccc;strokeColor=#36393d;rotation=15;" vertex="1" parent="1">
          <mxGeometry x="715" y="310" width="20" height="10" as="geometry" />
        </mxCell>
        <mxCell id="-qD7z1_jALMDXgXqYLfl-86" value="" style="ellipse;whiteSpace=wrap;html=1;aspect=fixed;fillColor=#f8cecc;strokeColor=#b85450;gradientColor=#ea6b66;" vertex="1" parent="1">
          <mxGeometry x="820" y="170" width="50" height="50" as="geometry" />
        </mxCell>
        <mxCell id="-qD7z1_jALMDXgXqYLfl-88" value="" style="ellipse;whiteSpace=wrap;html=1;aspect=fixed;fillColor=#e6d0de;strokeColor=#996185;gradientColor=#d5739d;" vertex="1" parent="1">
          <mxGeometry x="870" y="250" width="50" height="50" as="geometry" />
        </mxCell>
        <mxCell id="-qD7z1_jALMDXgXqYLfl-89" value="" style="endArrow=classic;html=1;rounded=0;entryX=0.8;entryY=1;entryDx=0;entryDy=0;entryPerimeter=0;" edge="1" parent="1" target="-qD7z1_jALMDXgXqYLfl-88">
          <mxGeometry width="50" height="50" relative="1" as="geometry">
            <mxPoint x="800" y="360" as="sourcePoint" />
            <mxPoint x="850" y="310" as="targetPoint" />
          </mxGeometry>
        </mxCell>
        <mxCell id="-qD7z1_jALMDXgXqYLfl-90" value="" style="endArrow=classic;html=1;rounded=0;entryX=0.216;entryY=0.932;entryDx=0;entryDy=0;entryPerimeter=0;" edge="1" parent="1" target="-qD7z1_jALMDXgXqYLfl-88">
          <mxGeometry width="50" height="50" relative="1" as="geometry">
            <mxPoint x="672.5" y="360" as="sourcePoint" />
            <mxPoint x="722.5" y="310" as="targetPoint" />
          </mxGeometry>
        </mxCell>
        <mxCell id="-qD7z1_jALMDXgXqYLfl-91" value="" style="endArrow=classic;html=1;rounded=0;" edge="1" parent="1" target="-qD7z1_jALMDXgXqYLfl-86">
          <mxGeometry width="50" height="50" relative="1" as="geometry">
            <mxPoint x="890" y="250" as="sourcePoint" />
            <mxPoint x="940" y="200" as="targetPoint" />
          </mxGeometry>
        </mxCell>
        <mxCell id="-qD7z1_jALMDXgXqYLfl-92" value="" style="endArrow=classic;html=1;rounded=0;" edge="1" parent="1">
          <mxGeometry width="50" height="50" relative="1" as="geometry">
            <mxPoint x="587.5" y="360" as="sourcePoint" />
            <mxPoint x="837.5" y="220" as="targetPoint" />
            <Array as="points">
              <mxPoint x="820" y="330" />
            </Array>
          </mxGeometry>
        </mxCell>
        <mxCell id="-qD7z1_jALMDXgXqYLfl-93" value="" style="endArrow=classic;html=1;rounded=0;entryX=0.5;entryY=1;entryDx=0;entryDy=0;" edge="1" parent="1" target="-qD7z1_jALMDXgXqYLfl-80">
          <mxGeometry width="50" height="50" relative="1" as="geometry">
            <mxPoint x="840" y="170" as="sourcePoint" />
            <mxPoint x="890" y="120" as="targetPoint" />
          </mxGeometry>
        </mxCell>
        <mxCell id="-qD7z1_jALMDXgXqYLfl-94" value="query hypertree after applying one variant of associativity" style="text;html=1;align=center;verticalAlign=middle;whiteSpace=wrap;rounded=0;" vertex="1" parent="1">
          <mxGeometry x="707.5" y="420" width="127.5" height="30" as="geometry" />
        </mxCell>
        <mxCell id="-qD7z1_jALMDXgXqYLfl-95" value="" style="rounded=0;whiteSpace=wrap;html=1;fillColor=#cdeb8b;strokeColor=#36393d;rotation=15;" vertex="1" parent="1">
          <mxGeometry x="825" y="210" width="20" height="10" as="geometry" />
        </mxCell>
        <mxCell id="-qD7z1_jALMDXgXqYLfl-96" value="" style="rounded=0;whiteSpace=wrap;html=1;fillColor=#cdeb8b;strokeColor=#36393d;rotation=15;" vertex="1" parent="1">
          <mxGeometry x="870" y="290" width="20" height="10" as="geometry" />
        </mxCell>
        <mxCell id="-qD7z1_jALMDXgXqYLfl-97" value="" style="rounded=0;whiteSpace=wrap;html=1;fillColor=#ffcccc;strokeColor=#36393d;rotation=-30;" vertex="1" parent="1">
          <mxGeometry x="850" y="210" width="20" height="10" as="geometry" />
        </mxCell>
        <mxCell id="-qD7z1_jALMDXgXqYLfl-98" value="" style="rounded=0;whiteSpace=wrap;html=1;fillColor=#ffcccc;strokeColor=#36393d;rotation=15;" vertex="1" parent="1">
          <mxGeometry x="900" y="290" width="20" height="10" as="geometry" />
        </mxCell>
      </root>
    </mxGraphModel>
  </diagram>
</mxfile>
